<?xml version="1.0" standalone="no"?>
<!DOCTYPE svg PUBLIC "-//W3C//DTD SVG 20010904//EN"
 "http://www.w3.org/TR/2001/REC-SVG-20010904/DTD/svg10.dtd">
<svg version="1.0" xmlns="http://www.w3.org/2000/svg"
 width="512.000000pt" height="512.000000pt" viewBox="0 0 512.000000 512.000000"
 preserveAspectRatio="xMidYMid meet">

<g transform="translate(0.000000,512.000000) scale(0.100000,-0.100000)"
fill="#9900FF" stroke="none">
<path d="M1850 4840 c-266 -22 -462 -77 -688 -195 -136 -71 -244 -149 -365
-265 -299 -285 -474 -645 -516 -1059 -14 -134 -14 -445 0 -568 27 -243 133
-521 283 -743 24 -35 31 -58 34 -108 6 -86 -8 -134 -91 -307 -60 -125 -72
-159 -75 -211 -5 -75 10 -124 51 -170 64 -73 177 -100 377 -91 197 10 369 68
520 174 l55 39 74 -29 c122 -47 218 -67 381 -78 210 -15 740 -5 880 16 732
112 1280 650 1416 1390 27 146 27 654 0 800 -67 366 -229 678 -483 927 -256
251 -574 409 -933 464 -120 18 -757 28 -920 14z m482 -1295 c99 -74 85 -226
-26 -276 -37 -17 -71 -19 -386 -19 -315 0 -349 2 -386 19 -87 39 -119 142 -71
224 46 78 41 77 467 74 357 -2 376 -3 402 -22z m634 -851 c53 -39 69 -71 69
-134 0 -63 -16 -95 -69 -134 -27 -21 -39 -21 -704 -24 -457 -2 -689 0 -714 8
-101 29 -140 168 -71 251 51 61 25 59 775 56 676 -2 687 -2 714 -23z"/>
<path d="M4574 2992 c-24 -16 -34 -56 -45 -179 -12 -154 -33 -291 -59 -394
-192 -750 -792 -1323 -1544 -1474 -197 -39 -383 -49 -826 -40 -499 9 -460 10
-483 -13 -33 -34 -16 -64 86 -149 173 -144 341 -238 537 -301 211 -67 425 -87
855 -79 320 6 410 17 547 67 45 17 88 30 96 30 8 0 45 -21 84 -46 158 -106
327 -149 554 -142 132 4 145 6 200 34 41 20 68 43 89 72 27 40 30 51 30 125 0
81 -1 83 -74 236 -69 143 -75 161 -79 231 l-4 77 59 99 c119 196 186 355 224
534 21 95 23 132 24 380 0 369 -22 503 -127 757 -62 151 -104 202 -144 175z"/>
</g>
</svg>
