<?xml version="1.0" standalone="no"?>
<!DOCTYPE svg PUBLIC "-//W3C//DTD SVG 20010904//EN"
 "http://www.w3.org/TR/2001/REC-SVG-20010904/DTD/svg10.dtd">
<svg version="1.0" xmlns="http://www.w3.org/2000/svg"
 width="512.000000pt" height="512.000000pt" viewBox="0 0 512.000000 512.000000"
 preserveAspectRatio="xMidYMid meet">

<g transform="translate(0.000000,512.000000) scale(0.100000,-0.100000)"
fill="#9900FF" stroke="none">
<path d="M3428 5105 c-333 -47 -628 -196 -862 -432 -624 -633 -560 -1671 139
-2217 272 -213 573 -317 920 -317 213 0 364 28 554 104 l104 41 294 -73 c295
-74 346 -81 408 -61 67 22 135 122 135 199 0 13 -41 147 -90 297 l-91 273 29
58 c106 213 162 490 148 727 -42 690 -530 1252 -1205 1387 -129 26 -357 33
-483 14z m464 -444 c382 -105 665 -389 770 -774 20 -72 23 -105 22 -267 0
-171 -2 -192 -27 -275 -15 -49 -56 -149 -92 -220 -80 -161 -82 -181 -25 -350
22 -65 38 -120 36 -122 -2 -2 -67 12 -144 32 -185 46 -207 46 -323 -9 -174
-82 -319 -116 -488 -116 -210 1 -411 63 -596 185 -79 52 -230 204 -283 285
-53 81 -104 185 -132 270 -79 245 -61 540 48 773 138 295 410 518 717 590 109
25 110 26 280 22 124 -2 177 -8 237 -24z"/>
<path d="M3115 4031 c-168 -78 -164 -314 7 -385 31 -14 95 -16 398 -16 303 0
367 2 398 16 110 45 161 173 113 280 -23 50 -53 81 -106 105 -37 17 -70 19
-405 19 -334 0 -368 -2 -405 -19z"/>
<path d="M3529 3387 c-148 -79 -148 -295 0 -374 41 -21 56 -23 200 -23 172 0
210 10 263 66 77 82 75 219 -3 294 -53 50 -93 60 -260 60 -144 0 -159 -2 -200
-23z"/>
<path d="M1530 3799 c-746 -156 -1335 -750 -1490 -1503 -82 -401 -28 -828 152
-1209 l52 -109 -122 -367 c-67 -202 -122 -383 -122 -402 0 -37 31 -113 58
-142 25 -28 87 -57 134 -62 33 -4 138 18 453 98 l410 103 98 -43 c930 -410
2026 -11 2485 903 89 178 178 471 168 552 -15 112 -104 192 -216 192 -52 0
-137 -45 -165 -89 -13 -20 -37 -88 -54 -152 -147 -576 -576 -988 -1161 -1115
-121 -27 -458 -27 -580 -1 -125 27 -251 71 -377 132 -91 45 -123 55 -164 55
-29 0 -155 -26 -295 -62 -134 -34 -246 -59 -249 -57 -2 3 30 108 71 234 91
274 91 280 15 413 -98 169 -158 337 -188 527 -21 134 -13 412 16 536 91 396
311 717 643 936 172 113 342 182 552 222 123 24 151 36 194 85 91 104 57 261
-70 327 -48 24 -123 24 -248 -2z"/>
<path d="M1237 2341 c-55 -11 -117 -59 -144 -110 -60 -114 2 -262 126 -300 53
-15 709 -15 762 1 176 52 201 291 42 385 l-48 28 -350 2 c-192 1 -367 -2 -388
-6z"/>
<path d="M1237 1700 c-54 -10 -117 -58 -144 -109 -60 -114 2 -262 126 -300 27
-8 209 -11 603 -11 l564 0 55 28 c114 57 151 192 83 299 -32 49 -76 79 -134
92 -52 12 -1092 13 -1153 1z"/>
</g>
</svg>
